<svg width="200" height="200" viewBox="0 0 200 200" fill="none" xmlns="http://www.w3.org/2000/svg">
<path d="M66.6666 58.3333C66.6666 67.1739 70.1785 75.6523 76.4297 81.9036C82.6809 88.1548 91.1594 91.6667 100 91.6667C108.841 91.6667 117.319 88.1548 123.57 81.9036C129.821 75.6523 133.333 67.1739 133.333 58.3333C133.333 49.4928 129.821 41.0143 123.57 34.7631C117.319 28.5119 108.841 25 100 25C91.1594 25 82.6809 28.5119 76.4297 34.7631C70.1785 41.0143 66.6666 49.4928 66.6666 58.3333Z" stroke="white" stroke-width="16.6667" stroke-linecap="round" stroke-linejoin="round"/>
<path d="M50 175V158.333C50 149.493 53.5119 141.014 59.7631 134.763C66.0143 128.512 74.4928 125 83.3333 125H112.5" stroke="white" stroke-width="16.6667" stroke-linecap="round" stroke-linejoin="round"/>
<path d="M158.333 183.333V183.417" stroke="white" stroke-width="16.6667" stroke-linecap="round" stroke-linejoin="round"/>
<path d="M158.333 158.333C162.069 158.321 165.693 157.057 168.625 154.741C171.557 152.426 173.627 149.194 174.505 145.563C175.382 141.931 175.016 138.111 173.465 134.712C171.914 131.313 169.268 128.533 165.95 126.817C162.635 125.118 158.843 124.592 155.19 125.323C151.538 126.053 148.24 127.999 145.833 130.842" stroke="white" stroke-width="16.6667" stroke-linecap="round" stroke-linejoin="round"/>
</svg>
