<svg width="150" height="168" viewBox="0 0 150 168" fill="none" xmlns="http://www.w3.org/2000/svg">
<path d="M125 92.3333H119.333L102.667 109H118.583L133.333 125.667H16.6667L31.5 109H48.5833L31.9167 92.3333H25L0 117.333V150.667C0 159.833 7.41666 167.333 16.5833 167.333H133.333C137.754 167.333 141.993 165.577 145.118 162.452C148.244 159.326 150 155.087 150 150.667V117.333L125 92.3333ZM116.667 50.25L75.4167 91.5L45.9167 62L87.1667 20.75L116.667 50.25ZM81.3333 3.08334L28.25 56.1667C27.4775 56.9376 26.8646 57.8534 26.4464 58.8615C26.0282 59.8696 25.813 60.9503 25.813 62.0417C25.813 63.1331 26.0282 64.2138 26.4464 65.2219C26.8646 66.23 27.4775 67.1457 28.25 67.9167L69.5 109.167C72.75 112.417 78 112.417 81.25 109.167L134.25 56.1667C135.023 55.3957 135.635 54.48 136.054 53.4719C136.472 52.4638 136.687 51.3831 136.687 50.2917C136.687 49.2003 136.472 48.1196 136.054 47.1115C135.635 46.1034 135.023 45.1876 134.25 44.4167L93 3.16667C92.2482 2.38002 91.346 1.7524 90.3469 1.32107C89.3479 0.889734 88.2724 0.663467 87.1843 0.655694C86.0962 0.647922 85.0176 0.858803 84.0125 1.27582C83.0074 1.69284 82.0963 2.30751 81.3333 3.08334Z" fill="white"/>
</svg>
